<svg width="282" height="152" viewBox="0 0 282 152" fill="none" xmlns="http://www.w3.org/2000/svg">
<path opacity="0.8" d="M158.667 21.6418C158.792 21.3934 158.916 21.114 159.04 20.8656C159.04 20.8656 159.04 20.8656 159.04 20.8967C158.543 21.6419 158.046 22.356 157.456 23.0391C156.898 23.7222 156.277 24.3742 155.656 24.9642C155.004 25.5541 154.32 26.1131 153.606 26.5788C152.892 27.0446 152.147 27.5103 151.371 27.7897C149.818 28.4418 148.141 28.7213 146.558 28.5039C145.751 28.4108 144.974 28.2244 144.229 27.9139L143.67 27.6656C143.639 27.6345 143.577 27.6345 143.546 27.6034H143.515L160.375 17.8538C160.872 17.5433 161.493 17.4191 162.114 17.6054C162.487 17.7296 162.828 17.9469 163.077 18.2574C164.35 19.7788 165.498 21.3934 166.523 23.1012C167.579 24.9021 168.386 26.8272 168.914 28.8144C169.131 29.7149 168.728 30.6153 167.951 31.081L150.129 41.3586L148.359 42.3832C145.161 44.2152 143.857 46.6992 143.422 49.8042C142.894 53.3749 144.074 57.5046 146.465 61.0132C146.62 61.2616 146.806 61.479 146.962 61.6963C146.962 61.6963 146.962 61.6963 146.962 61.6653C146.558 60.858 146.185 60.0818 145.875 59.2434C145.564 58.4051 145.316 57.5667 145.099 56.7283C144.912 55.89 144.757 55.0206 144.695 54.1512C144.633 53.2818 144.602 52.4435 144.757 51.6362C144.974 49.9595 145.533 48.3759 146.527 47.1028C146.993 46.4508 147.552 45.8919 148.173 45.3951L148.638 45.0225C148.669 44.9914 148.7 44.9915 148.731 44.9604C148.731 47.3823 148.7 64.3977 148.7 64.5219C148.7 64.7393 148.669 64.9876 148.607 65.205C148.359 65.9191 147.738 66.447 147.024 66.5402C145.068 66.8817 143.08 67.068 141.093 67.099C139.013 67.1301 136.963 66.8506 134.945 66.2917C134.076 66.0433 133.486 65.236 133.486 64.3356L133.455 41.7622C133.455 38.0673 131.964 35.7075 129.511 33.7824C126.469 31.3916 121.966 30.3669 117.402 30.8947C117.402 30.8947 117.402 30.8947 117.433 30.8947C118.333 30.9258 119.203 31.0189 120.072 31.1742C120.942 31.2984 121.811 31.5158 122.649 31.7642C123.488 32.0126 124.295 32.3231 125.071 32.6957C125.848 33.0683 126.593 33.4719 127.245 33.9997C128.58 35.0244 129.667 36.2974 130.288 37.7878C130.598 38.533 130.847 39.3093 130.94 40.0855L131.002 40.6755C131.002 40.7065 131.002 40.7686 131.002 40.7997C129.201 39.744 114.173 31.05 114.08 30.9568C113.893 30.8326 113.707 30.7085 113.552 30.5222C113.055 29.9633 112.9 29.1559 113.179 28.4728C113.862 26.6098 114.701 24.7779 115.663 23.0702C116.688 21.2693 117.961 19.5925 119.42 18.1332C120.072 17.5122 121.066 17.388 121.873 17.8538C121.873 17.8538 134.821 25.3057 139.82 28.1623C140.068 28.3176 141.559 29.187 141.559 29.187C144.726 31.05 147.52 30.9879 150.439 29.808C153.762 28.5349 156.773 25.492 158.667 21.6418ZM187.575 12.7926C187.575 12.7926 187.544 16.5807 187.482 17.8538C186.83 32.4783 182.669 46.7302 175.341 59.4297C167.361 73.2469 155.873 84.7044 142.056 92.6532L141.031 93.2432L140.006 92.6532C126.158 84.6734 114.67 73.2159 106.69 59.3987C98.7099 45.5814 94.456 29.9322 94.425 13.9725V12.7616L95.4496 12.1716C109.298 4.19175 124.978 0 140.969 0C156.929 0 172.64 4.19175 186.457 12.1716L187.575 12.7926ZM184.812 14.3141C171.305 6.7068 156.463 2.3598 140.969 2.3598C125.475 2.3598 110.633 6.7068 97.1263 14.3141C97.3126 45.333 114.111 72.9985 140.907 88.6477L140.938 88.6167C167.858 72.9986 184.656 45.4261 184.812 14.3141Z" fill="#26C3F2"/>
<g opacity="0.8">
<path d="M11.5699 150.87H5.84804C2.79997 150.87 0.570068 148.731 0.570068 145.854V144.48H4.28657V146.041C4.28861 146.392 4.42394 146.729 4.66518 146.984C4.90642 147.24 5.23556 147.394 5.58602 147.415H11.8319C12.1823 147.394 12.5115 147.24 12.7527 146.984C12.994 146.729 13.1293 146.392 13.1313 146.041V143.255C13.1313 141.062 8.74638 141.806 5.99242 141.731C2.98713 141.619 0.719797 139.592 0.719797 136.678V134.26C0.719797 131.362 2.9497 129.245 5.99242 129.245H11.2704C14.3185 129.245 16.5484 131.384 16.5484 134.26V135.672H12.8319V134.068C12.8298 133.717 12.6945 133.38 12.4533 133.124C12.212 132.869 11.8829 132.715 11.5324 132.694H5.73575C5.38529 132.715 5.05615 132.869 4.81491 133.124C4.57367 133.38 4.43834 133.717 4.4363 134.068V136.891C4.4363 139.084 8.82125 138.341 11.5699 138.378C14.5431 138.453 16.8478 140.517 16.8478 143.431V145.848C16.8478 148.752 14.6179 150.87 11.5699 150.87Z" fill="#26C3F2"/>
<path d="M38.6246 138.457L33.8654 143.179V150.794H30.0794V143.179L25.3201 138.457C24.828 138.034 24.4434 137.5 24.198 136.9C23.9525 136.299 23.8533 135.649 23.9083 135.002V129.243H27.6516V134.853C27.6516 135.633 27.6516 135.746 28.1329 136.19L31.9617 140.093L35.8279 136.19C36.3092 135.746 36.3092 135.655 36.3092 134.853V129.243H40.0524V135.002C40.1056 135.65 40.0038 136.301 39.7555 136.902C39.5073 137.503 39.1196 138.036 38.6246 138.457Z" fill="#26C3F2"/>
<path d="M61.4441 150.794V135.409L57.503 139.943H55.1982L51.2625 135.409V150.794H47.4818V129.243H50.5673L56.4656 136.115C56.61 135.671 62.15 129.243 62.15 129.243H65.2355V150.794H61.4441Z" fill="#26C3F2"/>
<path d="M83.0703 150.794H72.6641V129.243H83.0703C86.1183 129.243 88.4178 131.436 88.4178 134.334V136.526C88.4572 137.164 88.3466 137.802 88.0949 138.389C87.8432 138.975 87.4575 139.495 86.9686 139.906C87.4424 140.273 87.8214 140.748 88.0735 141.291C88.3257 141.834 88.4437 142.43 88.4178 143.029V145.703C88.4231 148.601 86.1183 150.794 83.0703 150.794ZM84.6317 134.072C84.6317 133.705 84.4972 133.352 84.2538 133.078C84.0103 132.804 83.6749 132.629 83.3109 132.585H76.3592V138.2H82.974C84.3162 138.2 84.6478 137.788 84.6478 136.489L84.6317 134.072ZM84.6317 143.361C84.6317 141.986 84.3002 141.58 83.1077 141.58H76.3592V147.489H83.3109C83.671 147.441 84.0013 147.264 84.2404 146.99C84.4795 146.717 84.6109 146.365 84.6104 146.002L84.6317 143.361Z" fill="#26C3F2"/>
<path d="M107.597 150.794H101.132C98.0838 150.794 95.8539 148.655 95.8539 145.778V134.259C95.8539 131.361 98.0838 129.243 101.132 129.243H107.597C110.645 129.243 112.875 131.382 112.875 134.259V145.778C112.875 148.676 110.645 150.794 107.597 150.794ZM109.158 134.072C109.156 133.721 109.021 133.384 108.78 133.128C108.539 132.873 108.21 132.719 107.859 132.698H100.87C100.519 132.719 100.19 132.873 99.9491 133.128C99.7078 133.384 99.5725 133.721 99.5705 134.072V145.965C99.5725 146.316 99.7078 146.653 99.9491 146.908C100.19 147.163 100.519 147.317 100.87 147.339H107.859C108.21 147.317 108.539 147.163 108.78 146.908C109.021 146.653 109.156 146.316 109.158 145.965V134.072Z" fill="#26C3F2"/>
<path d="M120.307 150.794V129.243H124.168V147.339H133.831V150.794H120.307Z" fill="#26C3F2"/>
<path d="M166.284 133.183V129.67H152.311V151.575H156.087V142.436H163.943V138.848H156.087V133.183H166.284Z" fill="#26C3F2"/>
<path d="M189.314 138.243C189.314 136.695 189.049 135.713 187.879 134.618L182.667 129.67H179.343L174.131 134.618C172.96 135.713 172.696 136.695 172.696 138.243V151.575H176.511V144.664H185.499V151.575H189.314V138.243ZM185.499 141.34H176.511V138.432C176.511 137.639 176.548 137.45 177.002 136.997C177.002 136.997 180.778 133.296 180.967 132.994L185.008 136.997C185.461 137.45 185.499 137.639 185.499 138.432V141.34Z" fill="#26C3F2"/>
<path d="M213.017 146.477V129.67H209.089V146.665C209.089 147.421 208.447 148.063 207.767 148.063H201.724C201.045 148.063 200.403 147.421 200.403 146.665V129.67H196.475V146.477C196.475 149.422 198.741 151.575 201.838 151.575H207.654C210.751 151.575 213.017 149.422 213.017 146.477Z" fill="#26C3F2"/>
<path d="M236.722 146.477V144.928H232.869V146.628C232.869 147.383 232.227 148.025 231.548 148.025H225.354C224.674 148.025 224.032 147.383 224.032 146.628V134.655C224.032 133.9 224.674 133.258 225.354 133.258H231.548C232.227 133.258 232.869 133.9 232.869 134.655V136.317H236.722V134.995C236.722 132.087 234.569 129.67 231.434 129.67H225.543C222.446 129.67 220.18 131.823 220.18 134.769V146.477C220.18 149.422 222.446 151.575 225.543 151.575H231.359C234.456 151.575 236.722 149.422 236.722 146.477Z" fill="#26C3F2"/>
<path d="M258.085 151.575V148.063H247.661V142.436H255.743V138.848H247.661V133.183H258.085V129.67H243.884V151.575H258.085Z" fill="#26C3F2"/>
<path d="M281.43 133.183V129.67H264.133V133.183H270.742V151.575H274.783V133.183H281.43Z" fill="#26C3F2"/>
</g>
</svg>
